<?xml version="1.0" encoding="utf-8"?>
<!-- Generator: Adobe Illustrator 17.0.0, SVG Export Plug-In . SVG Version: 6.00 Build 0)  -->
<!DOCTYPE svg PUBLIC "-//W3C//DTD SVG 1.1//EN" "http://www.w3.org/Graphics/SVG/1.1/DTD/svg11.dtd">
<svg version="1.1" id="Capa_1" xmlns="http://www.w3.org/2000/svg" xmlns:xlink="http://www.w3.org/1999/xlink" x="0px" y="0px"
	 width="16px" height="16px" viewBox="0 0 16 16" enable-background="new 0 0 16 16" xml:space="preserve">
<circle fill="#064CEA" cx="7.5" cy="7.5" r="7.5"/>
<path fill="#FFFFFF" d="M11.5,8H8v3.5C8,11.775,7.775,12,7.5,12C7.224,12,7,11.775,7,11.5V8H3.5C3.224,8,3,7.775,3,7.5
	C3,7.224,3.224,7,3.5,7H7V3.5C7,3.224,7.224,3,7.5,3C7.775,3,8,3.224,8,3.5V7h3.5C11.775,7,12,7.224,12,7.5
	C12,7.775,11.775,8,11.5,8z"/>
</svg>
