<?xml version="1.0" encoding="utf-8"?>
<!-- Generator: Adobe Illustrator 17.0.0, SVG Export Plug-In . SVG Version: 6.00 Build 0)  -->
<!DOCTYPE svg PUBLIC "-//W3C//DTD SVG 1.1//EN" "http://www.w3.org/Graphics/SVG/1.1/DTD/svg11.dtd">
<svg version="1.1" id="Layer_1" xmlns="http://www.w3.org/2000/svg" xmlns:xlink="http://www.w3.org/1999/xlink" x="0px" y="0px"
	 width="76.5px" height="79.5px" viewBox="0 0 76.5 79.5" enable-background="new 0 0 76.5 79.5" xml:space="preserve">
<path d="M36.201,0C16.291,0,0,16.291,0,36.201s16.291,36.201,36.201,36.201s36.201-16.291,36.201-36.201S56.112,0,36.201,0z"/>
<path fill="#FFFFFF" d="M36.201,10.86c6.154,0,10.86,4.706,10.86,10.86s-4.706,10.86-10.86,10.86s-10.86-4.706-10.86-10.86
	S30.047,10.86,36.201,10.86z"/>
<path fill="#FFFFFF" d="M36.201,62.266c-9.05,0-17.015-4.706-21.721-11.584c0-7.24,14.481-11.222,21.721-11.222
	s21.721,3.982,21.721,11.222C53.216,57.56,45.252,62.266,36.201,62.266z"/>
</svg>
