<?xml version="1.0" encoding="utf-8"?>
<!-- Generator: Adobe Illustrator 17.0.0, SVG Export Plug-In . SVG Version: 6.00 Build 0)  -->
<!DOCTYPE svg PUBLIC "-//W3C//DTD SVG 1.1//EN" "http://www.w3.org/Graphics/SVG/1.1/DTD/svg11.dtd">
<svg version="1.1" id="Capa_1" xmlns="http://www.w3.org/2000/svg" xmlns:xlink="http://www.w3.org/1999/xlink" x="0px" y="0px"
	 width="560px" height="560px" viewBox="0 0 560 560" enable-background="new 0 0 560 560" xml:space="preserve">
<g>
	<g id="news">
		<path fill="#FFFFFF" d="M507.5,0h-385C93.503,0,70,23.485,70,52.5v35H52.5C23.503,87.5,0,110.985,0,140v350
			c0,38.657,31.343,70,70,70h420c38.657,0,70-31.343,70-70V52.5C560,23.485,536.48,0,507.5,0z M525,490c0,19.285-15.715,35-35,35H70
			c-19.303,0-35-15.715-35-35V140c0-9.66,7.84-17.5,17.5-17.5H70v350c0,9.677,7.823,17.5,17.5,17.5s17.5-7.823,17.5-17.5v-420
			c0-9.66,7.84-17.5,17.5-17.5h385c9.643,0,17.5,7.84,17.5,17.5V490z"/>
		<path fill="#FFFFFF" d="M341.215,227.588h140c4.848,0,8.75-3.92,8.75-8.75c0-4.83-3.902-8.75-8.75-8.75h-140
			c-4.812,0-8.75,3.92-8.75,8.75C332.465,223.667,336.402,227.588,341.215,227.588z"/>
		<path fill="#FFFFFF" d="M341.215,175.088h140c4.848,0,8.75-3.92,8.75-8.75c0-4.83-3.902-8.75-8.75-8.75h-140
			c-4.812,0-8.75,3.92-8.75,8.75C332.465,171.167,336.402,175.088,341.215,175.088z"/>
		<path fill="#FFFFFF" d="M341.215,122.588h140c4.848,0,8.75-3.92,8.75-8.75s-3.902-8.75-8.75-8.75h-140
			c-4.812,0-8.75,3.92-8.75,8.75S336.402,122.588,341.215,122.588z"/>
		<path fill="#FFFFFF" d="M288.75,472.57h-140c-4.83,0-8.75,3.938-8.75,8.75c0,4.848,3.92,8.75,8.75,8.75h140
			c4.812,0,8.75-3.902,8.75-8.75C297.5,476.508,293.58,472.57,288.75,472.57z"/>
		<path fill="#FFFFFF" d="M288.75,420.07h-140c-4.83,0-8.75,3.938-8.75,8.75c0,4.848,3.92,8.75,8.75,8.75h140
			c4.812,0,8.75-3.902,8.75-8.75C297.5,424.008,293.58,420.07,288.75,420.07z"/>
		<path fill="#FFFFFF" d="M288.75,367.57h-140c-4.83,0-8.75,3.938-8.75,8.75c0,4.848,3.92,8.75,8.75,8.75h140
			c4.812,0,8.75-3.902,8.75-8.75C297.5,371.508,293.58,367.57,288.75,367.57z"/>
		<path fill="#FFFFFF" d="M481.25,472.57h-140c-4.848,0-8.75,3.938-8.75,8.75c0,4.848,3.902,8.75,8.75,8.75h140
			c4.812,0,8.75-3.902,8.75-8.75C490,476.508,486.062,472.57,481.25,472.57z"/>
		<path fill="#FFFFFF" d="M481.25,420.07h-140c-4.848,0-8.75,3.938-8.75,8.75c0,4.848,3.902,8.75,8.75,8.75h140
			c4.812,0,8.75-3.902,8.75-8.75C490,424.008,486.062,420.07,481.25,420.07z"/>
		<path fill="#FFFFFF" d="M481.25,367.57h-140c-4.848,0-8.75,3.938-8.75,8.75c0,4.848,3.902,8.75,8.75,8.75h140
			c4.812,0,8.75-3.902,8.75-8.75C490,371.508,486.062,367.57,481.25,367.57z"/>
		<path fill="#FFFFFF" d="M481.25,262.57h-332.5c-4.83,0-8.75,3.92-8.75,8.75c0,4.83,3.92,8.75,8.75,8.75h332.5
			c4.812,0,8.75-3.92,8.75-8.75C490,266.49,486.062,262.57,481.25,262.57z"/>
		<path fill="#FFFFFF" d="M481.25,315.07h-332.5c-4.83,0-8.75,3.938-8.75,8.75c0,4.848,3.92,8.75,8.75,8.75h332.5
			c4.812,0,8.75-3.902,8.75-8.75C490,319.008,486.062,315.07,481.25,315.07z"/>
		<path fill="#FFFFFF" d="M157.5,227.5H280c9.677,0,17.5-7.822,17.5-17.5V87.57c0-9.677-7.823-17.5-17.5-17.5H157.5
			c-9.677,0-17.5,7.823-17.5,17.5V210C140,219.66,147.822,227.5,157.5,227.5z M175,105h87.5v87.5H175V105z"/>
	</g>
</g>
</svg>
