<?xml version="1.0" encoding="utf-8"?>
<!-- Generator: Adobe Illustrator 17.0.0, SVG Export Plug-In . SVG Version: 6.00 Build 0)  -->
<!DOCTYPE svg PUBLIC "-//W3C//DTD SVG 1.1//EN" "http://www.w3.org/Graphics/SVG/1.1/DTD/svg11.dtd">
<svg version="1.1" id="Capa_1" xmlns="http://www.w3.org/2000/svg" xmlns:xlink="http://www.w3.org/1999/xlink" x="0px" y="0px"
	 width="543.331px" height="560px" viewBox="0 0 543.331 560" enable-background="new 0 0 543.331 560" xml:space="preserve">
<g>
	<g>
		<path fill="#FFFFFF" d="M377.384,365.56c35.8-38.756,58.135-90.651,58.135-147.801C435.519,97.877,337.971,0,217.76,0
			S0,97.877,0,217.76s97.548,217.76,217.76,217.76c48.939,0,93.935-16.093,130.393-43.355l161.923,161.924
			c3.941,3.941,8.868,5.912,13.795,5.912s10.181-1.971,13.795-5.912c7.555-7.555,7.555-20.035,0-27.918L377.384,365.56z
			 M39.414,217.76c0-98.206,79.812-178.346,178.346-178.346c98.206,0,178.346,79.812,178.346,178.346
			S316.293,396.106,217.76,396.106S39.414,315.965,39.414,217.76z"/>
	</g>
</g>
</svg>
